<svg xmlns="http://www.w3.org/2000/svg" width="339.34" height="61.596" viewBox="0 0 339.34 61.596"><path data-name="Path 1" d="M21.541 22.716q-.64-1.17-5.79-5.7l-3.83-3c-2.24-1.82-3.35-3.33-3.35-4.52a2.74 2.74 0 0 1 .8-2.11 3.2 3.2 0 0 1 2.16-.69 2.31 2.31 0 0 1 2.29 1.32 7.44 7.44 0 0 1 .44 2.77v2h8.08v-3.33a9.05 9.05 0 0 0-2.69-7q-2.65-2.44-8.12-2.44t-8.17 2.62c-1.92 1.76-2.87 4.38-2.87 7.92a11.82 11.82 0 0 0 .51 3.51 11.29 11.29 0 0 0 1.64 2.95 55.29 55.29 0 0 0 4.8 4.23l3.72 2.77c2.1 1.8 3.14 3.54 3.14 5.24a2.82 2.82 0 0 1-.8 2 2.89 2.89 0 0 1-2.2.89 2.63 2.63 0 0 1-2.41-1.19 5.48 5.48 0 0 1-.51-2.71v-2.8H.001v4a8.55 8.55 0 0 0 2.41 6.11q3 3.2 8.8 3.19 6.06 0 9.25-3.42a8.8 8.8 0 0 0 2.54-6.11 13.34 13.34 0 0 0-1.46-6.5z" fill="#fbaf18"/><path data-name="Path 2" d="M45.701 2.796a11.62 11.62 0 0 0-8.07-2.78 11.51 11.51 0 0 0-8 2.69c-2.09 1.89-3.14 4.62-3.14 8.17v17.05a10.51 10.51 0 0 0 3.05 8 11.18 11.18 0 0 0 8.11 2.91 11.08 11.08 0 0 0 8.12-3 10.1 10.1 0 0 0 3-7v-17.94q-.01-5.34-3.07-8.1zm-8.07 29.33a3.13 3.13 0 0 1-1-.15 1.62 1.62 0 0 1-.91-.65 5 5 0 0 1-.58-2.64v-18.57a7.21 7.21 0 0 1 .32-2.2 2.25 2.25 0 0 1 2.19-1.22 2.19 2.19 0 0 1 2.2 1.26 7 7 0 0 1 .27 2.16v18.57a6.61 6.61 0 0 1-.32 2.11 2.17 2.17 0 0 1-2.17 1.33z" fill="#fbaf18"/><path data-name="Path 3" d="M61.251 30.936V.616h-8.66v37.57h18.07v-7.25z" fill="#fbaf18"/><path data-name="Path 4" d="M94.511 27.556L89.461.616h-11.46l-5.61 30.2-1.39 7.37h8.66l.61-4.59.28-2.09h6.06l.09.75.72 5.93h9.08zm-13-2.73l2.25-18.38 2 18.38z" fill="#fbaf18"/><path data-name="Path 5" d="M121.001 35.866a6.559 6.559 0 0 1-.09-1.08v-10.33a5.78 5.78 0 0 0-1.38-4 5.65 5.65 0 0 0-3.65-2.12 6.68 6.68 0 0 0 4.36-3.25 13.44 13.44 0 0 0 .85-5.44q0-5-2.59-7.06c-1.72-1.35-4.5-2-8.36-2h-11.39v37.6h8.65v-16.23h1.6a3.48 3.48 0 0 1 2.53.76 3.32 3.32 0 0 1 .75 2.34v8.07a23.539 23.539 0 0 0 .18 2.8 5.62 5.62 0 0 0 .76 2.22h8.56a3.46 3.46 0 0 1-.78-2.28zm-8.93-21.59a2.7 2.7 0 0 1-2.59 1.28h-2.08v-8.54h1.7c1.53 0 2.52.36 3 1.08a7.58 7.58 0 0 1 .42 3l-.09 2z" fill="#fbaf18"/><path data-name="Path 6" d="M195.001 2.796a11.65 11.65 0 0 0-8.13-2.78 11.46 11.46 0 0 0-8 2.69c-2.1 1.89-3.14 4.62-3.14 8.17v17.05a12.51 12.51 0 0 0 .73 4.41 9.32 9.32 0 0 0 2.32 3.54 12.69 12.69 0 0 0 16.23 0 9.45 9.45 0 0 0 2.53-4.28 13.33 13.33 0 0 0 .47-3.62v-17c-.01-3.65-1.01-6.34-3.01-8.18zm-10.63 7.32a7.21 7.21 0 0 1 .32-2.2 2.24 2.24 0 0 1 2.18-1.22 2.18 2.18 0 0 1 2.2 1.26 6.69 6.69 0 0 1 .28 2.16v18.57a6.9 6.9 0 0 1-.32 2.11 2.54 2.54 0 0 1-4.09.53 5.12 5.12 0 0 1-.57-2.64z" fill="#1c3969"/><path data-name="Path 7" d="M210.491 30.936V.616h-8.65v37.57h18.06v-7.25z" fill="#1c3969"/><path data-name="Path 8" d="M243.061 3.486c-1.5-1.92-4-2.87-7.48-2.87h-12.88v37.57h12.88a9.31 9.31 0 0 0 6.42-2.27 8.49 8.49 0 0 0 2.38-3.61 11.37 11.37 0 0 0 .58-3.76v-17.86q.04-4.74-1.9-7.2zm-10.35 28.3h-1.36V7.016h1.36c2.42 0 3.63 1.07 3.63 3.19v18.39a2.77 2.77 0 0 1-2.34 3.06 5.811 5.811 0 0 1-1.29.13z" fill="#1c3969"/><path data-name="Path 9" d="M249.101.616v37.57h8.65V.616z" fill="#1c3969"/><path data-name="Path 10" d="M124.141.616v37.57h8.65V.616z" fill="#fbaf18"/><path data-name="Path 11" d="M278.391.616l-.09 22.15-6.96-22.15h-9.46v37.57h8.38v-9.57l.05-13.66 4.27 14.17 2.73 9.06h9.42V.616z" fill="#1c3969"/><path data-name="Path 12" d="M312.891 13.396v-4.17q0-4.94-3.38-7.28-2.77-1.93-7.75-1.93a11.51 11.51 0 0 0-8 2.69c-2.09 1.89-3.14 4.62-3.14 8.17v17.05a14.68 14.68 0 0 0 1.65 7.58l.23.34a7 7 0 0 0 6.06 2.94 9 9 0 0 0 2.42-.32 7.64 7.64 0 0 0 4.35-3.33v3.05h7.58v-20.68h-11.45v7h3.05v4.84c0 1.88-.92 2.82-2.75 2.82a2.15 2.15 0 0 1-1.93-.8 5 5 0 0 1-.58-2.64v-18.61a5.08 5.08 0 0 1 .48-2.16 2.54 2.54 0 0 1 2.21-1.26q2.73 0 2.73 3v3.74z" fill="#1c3969"/><path data-name="Path 13" d="M337.911 22.716q-.65-1.17-5.79-5.74l-3.83-3q-3.35-2.73-3.35-4.52a2.77 2.77 0 0 1 .8-2.11 3.22 3.22 0 0 1 2.16-.69 2.3 2.3 0 0 1 2.29 1.36 7.439 7.439 0 0 1 .44 2.77v2h8.08v-3.33a9.05 9.05 0 0 0-2.69-7q-2.65-2.44-8.12-2.44t-8.17 2.62c-1.92 1.76-2.87 4.4-2.87 7.92a12.151 12.151 0 0 0 .5 3.51 11 11 0 0 0 1.64 2.95 52.827 52.827 0 0 0 4.79 4.23l3.74 2.77c2.1 1.8 3.15 3.54 3.15 5.24a2.83 2.83 0 0 1-.81 2 2.87 2.87 0 0 1-2.2.89 2.63 2.63 0 0 1-2.41-1.19 5.48 5.48 0 0 1-.51-2.71v-2.8h-8.37v4a8.51 8.51 0 0 0 2.41 6.11q3 3.2 8.79 3.19 6.06 0 9.25-3.42a8.75 8.75 0 0 0 2.5-6.15 13.23 13.23 0 0 0-1.42-6.46z" fill="#1c3969"/><path data-name="Path 14" d="M55.841 43.436v-.84h2.92v1.15h-.21zm2.92 12v1.15h-2.92v-.84l2.71-.31zm-.94-6.37c0-2.15 0-4.32-.06-6.47h2c-.06 2.11-.06 4.28-.06 6.47v.8c0 2.4 0 4.57.06 6.72h-2c.06-2.11.06-4.28.06-6.47zm6.72-6.47l.94 1.05h-6.72v-1.05h7.45l.15 3.72h-1.17zm-1.06 7.33h-4.72v-.91h4.72zm3.3 2.94l-.15 3.72h-7.87v-1h7.14l-.94 1 .65-3.72zm-4-3.69l.31-2.22h.94v5h-.94l-.31-2.32z" fill="#1c3969"/><path data-name="Path 15" d="M69.901 56.586c0-.94.07-3.09.07-4.39v-1c0-1.15 0-1.79-.07-2.63l-1.67-.18v-.74l2.84-1.25.32.21.25 2.41v3.15c0 1.3 0 3.45.06 4.39zm3.26-.73v.73h-4.8v-.73l2.3-.42h.41zm4.74-5.58v1.92c0 1.34 0 3.45.06 4.39h-1.79c0-.94.06-3 .06-4.39v-1.75c0-1.94-.5-2.57-1.75-2.57a4.41 4.41 0 0 0-3 1.44h-.48v-.94h1.1l-.9.38a5.56 5.56 0 0 1 4-2.34c1.8 0 2.7 1.11 2.7 3.86zm-.56 5.16l2.08.42v.73h-4.8v-.73l2.3-.42zm6.82-5.42v2.15c0 1.34 0 3.45.06 4.39h-1.79c0-.94.06-3 .06-4.39v-1.76c0-2-.54-2.53-1.77-2.53a4.36 4.36 0 0 0-3 1.44h-.5v-.73h1.13l-1 .17a5.12 5.12 0 0 1 4.11-2.34c1.72 0 2.7 1.05 2.7 3.6zm-.56 5.39l2.09.42v.73h-4.81v-.73l2.3-.42z" fill="#1c3969"/><path data-name="Path 16" d="M92.071 60.866v.73h-5.35v-.73l2.36-.42h.42zm-3.59-9.65c0-1.15 0-1.79-.07-2.63l-1.66-.18v-.74l2.83-1.25.32.21.16 1.78h.09v6.51l-.07.12v2.09c0 1.46 0 3 .07 4.43h-1.74c0-1.46.07-2.92.07-4.39zm4.26-3.65c-.78 0-1.82.38-3.34 1.86l-.19-.41c1.21-1.83 2.57-2.63 4-2.63 2.21 0 4 2 4 5.18s-1.84 5.26-4.28 5.26c-1.27 0-2.57-.59-3.67-2.76l.19-.33c1.08 1.38 2.08 1.94 3.11 1.94 1.58 0 2.88-1.23 2.88-3.92s-1.16-4.19-2.7-4.19z" fill="#1c3969"/><path data-name="Path 17" d="M99.081 51.676c0-3.46 2.36-5.26 4.76-5.26s4.76 1.8 4.76 5.26-2.4 5.18-4.76 5.18-4.76-1.71-4.76-5.18zm7.64 0c0-2.79-1.07-4.32-2.88-4.32s-2.84 1.53-2.84 4.32 1 4.24 2.88 4.24 2.84-1.44 2.84-4.24z" fill="#1c3969"/><path data-name="Path 18" d="M111.601 47.836l-2-.35v-.8h4.72v.8l-2.25.35zm6.6-1.15l3.08 8.17h-.45l2.5-8.17h1.17l-3.4 10h-.73c-2-5.17-2.57-6.86-3.09-8.51h.72l-3.17 8.51h-.74l-3.73-10h1.88l2.76 8.17h-.46l3-8.17zm-2.59.8v-.8h4.59v.8l-2 .35h-.42zm7.76.35l-1.94-.35v-.8h3.82v.8l-1.46.35z" fill="#1c3969"/><path data-name="Path 19" d="M134.621 50.406a4 4 0 0 1-.15 1.17h-7.7v-.88h5c1 0 1.23-.48 1.23-1.06a2.32 2.32 0 0 0-2.32-2.28c-1.33 0-2.88 1.13-2.88 4.11 0 2.65 1.34 4.07 3.43 4.07a3.61 3.61 0 0 0 2.89-1.52l.48.38a4.24 4.24 0 0 1-4 2.42c-2.8 0-4.61-1.94-4.61-5.12s2.17-5.32 4.76-5.32a3.72 3.72 0 0 1 3.87 4.03z" fill="#1c3969"/><path data-name="Path 20" d="M138.121 52.196v-1c0-1.15 0-1.79-.06-2.63l-1.67-.18v-.74l2.84-1.25.31.21.25 2.61v3c0 1.3 0 3.45.06 4.39h-1.79c.04-.96.06-3.11.06-4.41zm-1.56 3.66l2.29-.42h.42l2.3.42v.73h-5zm2.4-6.47h1.19l-.53.14c.67-1.94 1.95-3.11 3.18-3.11a1.79 1.79 0 0 1 1.48.71c0 1-.38 1.53-1.21 1.53a1.86 1.86 0 0 1-1.25-.51l-.57-.48 1-.2a5 5 0 0 0-2.53 3.31h-.72z" fill="#1c3969"/><path data-name="Path 21" d="M150.251 43.436v-.84h2.92v1.15h-.17zm2.92 12v1.15h-2.92v-.84l2.71-.31zm-.94-6.37c0-2.15 0-4.32-.06-6.47h2c-.06 2.11-.06 4.28-.06 6.47v.8c0 2.4 0 4.57.06 6.72h-2c.06-2.11.06-4.28.06-6.47zm6.77-6.47l.94 1.05h-6.72v-1.05h7.45l.15 3.72h-1.22zm-1.06 7.33h-4.72v-.91h4.72zm3.29 2.94l-.23 3.72h-7.87v-1h7.14l-.94 1 .65-3.72zm-4-3.69l.31-2.22h.94v5h-.94l-.31-2.32z" fill="#1c3969"/><path data-name="Path 22" d="M164.311 56.586c0-.94.06-3.09.06-4.39v-1c0-1.15 0-1.79-.06-2.63l-1.67-.18v-.74l2.84-1.25.31.21.21 2.41v3.15c0 1.3 0 3.45.07 4.39zm3.26-.73v.73h-4.8v-.73l2.29-.42h.42zm4.82-5.58v1.92c0 1.34 0 3.45.06 4.39h-1.79c0-.94.06-3 .06-4.39v-1.75c0-1.94-.5-2.57-1.75-2.57a4.58 4.58 0 0 0-3.09 1.44h-.44v-.94h1.06l-.89.38a5.67 5.67 0 0 1 4.13-2.34c1.79 0 2.65 1.11 2.65 3.86zm-.56 5.16l2.08.42v.73h-4.8v-.73l2.3-.42z" fill="#1c3969"/><path data-name="Path 23" d="M179.211 55.816a2.36 2.36 0 0 0 1.42-.59l.48.56a3 3 0 0 1-2.42 1.07 2.11 2.11 0 0 1-2.34-2.36v-6.75h-1.75v-.9l2.59-.33-.84.69.63-3.39h1.21l-.19 3.69v6.76c0 1.09.5 1.55 1.21 1.55zm1.71-9.13v1.09h-3.71v-1.09z" fill="#1c3969"/><path data-name="Path 24" d="M183.641 52.196v-1c0-1.15 0-1.79-.07-2.63l-1.67-.18v-.74l2.84-1.25.32.21.25 2.61v3c0 1.3 0 3.45.06 4.39h-1.8c.05-.96.07-3.11.07-4.41zm-1.57 3.66l2.3-.42h.41l2.3.42v.73h-5zm2.4-6.47h1.19l-.52.14c.67-1.94 1.94-3.11 3.17-3.11a1.77 1.77 0 0 1 1.48.71c0 1-.37 1.53-1.21 1.53a1.88 1.88 0 0 1-1.25-.51l-.56-.48 1-.2a5 5 0 0 0-2.53 3.31h-.79z" fill="#1c3969"/><path data-name="Path 25" d="M199.311 50.406a4 4 0 0 1-.15 1.17h-7.7v-.88h5c1 0 1.23-.48 1.23-1.06a2.32 2.32 0 0 0-2.32-2.28c-1.33 0-2.88 1.13-2.88 4.11 0 2.65 1.34 4.07 3.43 4.07a3.61 3.61 0 0 0 2.89-1.52l.48.38a4.24 4.24 0 0 1-4 2.42c-2.8 0-4.61-1.94-4.61-5.12s2.17-5.32 4.76-5.32a3.72 3.72 0 0 1 3.87 4.03z" fill="#1c3969"/><path data-name="Path 26" d="M206.221 60.866v.73h-5.35v-.73l2.36-.42h.42zm-3.59-9.65c0-1.15 0-1.79-.07-2.63l-1.67-.18v-.74l2.84-1.25.31.21.17 1.78h.09v6.51l-.07.12v2.09c0 1.46 0 3 .07 4.43h-1.74c0-1.46.07-2.92.07-4.39zm4.25-3.65c-.77 0-1.81.38-3.34 1.86l-.18-.38c1.21-1.83 2.56-2.63 4-2.63 2.22 0 4 2 4 5.18s-1.84 5.26-4.28 5.26c-1.27 0-2.57-.59-3.67-2.76l.18-.33c1.09 1.38 2.09 1.94 3.11 1.94 1.59 0 2.89-1.23 2.89-3.92s-1.16-4.22-2.71-4.22z" fill="#1c3969"/><path data-name="Path 27" d="M214.731 52.196v-1c0-1.15 0-1.79-.06-2.63l-1.67-.16v-.74l2.83-1.25.32.21.25 2.61v3c0 1.3 0 3.45.06 4.39h-1.79c.04-.98.06-3.13.06-4.43zm-1.57 3.66l2.3-.42h.42l2.29.42v.73h-5zm2.4-6.47h1.19l-.52.14c.67-1.94 1.94-3.11 3.17-3.11a1.79 1.79 0 0 1 1.49.71c0 1-.38 1.53-1.21 1.53a1.91 1.91 0 0 1-1.26-.51l-.56-.48 1-.2a5 5 0 0 0-2.52 3.31h-.8z" fill="#1c3969"/><path data-name="Path 28" d="M230.401 50.406a4.381 4.381 0 0 1-.14 1.17h-7.71v-.88h5c1 0 1.23-.48 1.23-1.06a2.32 2.32 0 0 0-2.31-2.28c-1.34 0-2.88 1.13-2.88 4.11 0 2.65 1.33 4.07 3.42 4.07a3.59 3.59 0 0 0 2.89-1.52l.48.38a4.24 4.24 0 0 1-4 2.42c-2.8 0-4.62-1.94-4.62-5.12s2.17-5.32 4.76-5.32a3.72 3.72 0 0 1 3.88 4.03z" fill="#1c3969"/><path data-name="Path 29" d="M233.841 56.586c0-.94.07-3.09.07-4.39v-1c0-1.15 0-1.79-.07-2.63l-1.67-.18v-.74l2.83-1.23.32.21.25 2.42v3.15c0 1.3 0 3.45.06 4.39zm3.26-.73v.73h-4.8v-.73l2.3-.42h.4zm4.82-5.58v1.92c0 1.34 0 3.45.06 4.39h-1.79c0-.94.06-3 .06-4.39v-1.75c0-1.94-.5-2.57-1.75-2.57a4.59 4.59 0 0 0-3.09 1.44h-.41v-.94h1l-.9.38a5.67 5.67 0 0 1 4.13-2.34c1.84 0 2.69 1.11 2.69 3.86zm-.56 5.16l2.09.42v.73h-4.81v-.73l2.3-.42z" fill="#1c3969"/><path data-name="Path 30" d="M253.651 50.406a4 4 0 0 1-.15 1.17h-7.7v-.88h5c1 0 1.23-.48 1.23-1.06a2.32 2.32 0 0 0-2.32-2.28c-1.33 0-2.88 1.13-2.88 4.11 0 2.65 1.34 4.07 3.43 4.07a3.61 3.61 0 0 0 2.89-1.52l.48.38a4.24 4.24 0 0 1-4 2.42c-2.79 0-4.61-1.94-4.61-5.12s2.17-5.32 4.76-5.32a3.72 3.72 0 0 1 3.87 4.03z" fill="#1c3969"/><path data-name="Path 31" d="M258.321 52.886c0 1.86.55 2.51 1.69 2.51a4.59 4.59 0 0 0 3.2-1.57h.44v1.07h-1.07l.73-.32a5 5 0 0 1-4 2.28c-1.67 0-2.72-1-2.7-3.76l.06-5.51.44.4-1.94-.42v-.73l3-.27.21.21-.11 2.92zm5 3.86l-.32-2.44.06-6.72.44.4-1.94-.42v-.73l3-.27.21.21-.06 2.92v6.24l-.5-.5 1.94.42v.73z" fill="#1c3969"/><path data-name="Path 32" d="M269.301 52.196v-1c0-1.15 0-1.79-.06-2.63l-1.67-.18v-.74l2.84-1.25.31.21.25 2.61v3c0 1.3 0 3.45.06 4.39h-1.79c.04-.96.06-3.11.06-4.41zm-1.57 3.66l2.3-.42h.42l2.29.42v.73h-5zm2.4-6.47h1.19l-.52.14c.67-1.94 1.94-3.11 3.17-3.11a1.79 1.79 0 0 1 1.49.71c0 1-.38 1.53-1.21 1.53a1.91 1.91 0 0 1-1.26-.51l-.56-.48 1-.2a5 5 0 0 0-2.52 3.31h-.8z" fill="#1c3969"/><path data-name="Path 33" d="M276.481 56.066l-.09-2.28h1.11l.56 2.46-1-.48v-.75a3.93 3.93 0 0 0 2.57.86c1.61 0 2.36-.65 2.36-1.61s-.63-1.35-1.94-1.83l-1-.36c-1.53-.56-2.53-1.38-2.53-2.8s1.27-2.9 3.59-2.9a5.34 5.34 0 0 1 2.9.86l-.01 2.15h-1.1l-.41-2.11.75.33v.54a3.43 3.43 0 0 0-2.13-.79c-1.29 0-2 .56-2 1.44s.52 1.3 1.94 1.82l.62.23c2.09.77 2.88 1.75 2.88 3.05 0 1.54-1.35 3-4 3a6.37 6.37 0 0 1-3.07-.83z" fill="#1c3969"/><path data-name="Path 34" d="M156.971.706v16.65l-1.85 2.08v.01l-5.56 6.25V.706z" fill="#1c3969"/><path data-name="Path 35" d="M171.801.706v25c-1.35-1.52-6.16-6.92-7.41-8.34V.706z" fill="#1c3969"/><path data-name="Path 36" d="M160.681 19.446l-3.68 6.25v12.49h-7.41v-12.49z" fill="#1c3969"/><path data-name="Path 37" d="M171.801 25.696l-11.12-6.25-11.12 6.25 11.12-12.5c3.17 3.55 7.91 8.89 11.12 12.5z" fill="#fbaf18"/><path data-name="Path 38" d="M171.801 25.696v12.49h-7.41v-12.49l-3.71-6.25z" fill="#1c3969"/></svg>